<svg xmlns="http://www.w3.org/2000/svg" xmlns:xlink="http://www.w3.org/1999/xlink" width="500" zoomAndPan="magnify" viewBox="0 0 375 374.999991" height="500" preserveAspectRatio="xMidYMid meet" version="1.0"><defs><g/></defs><g fill="#000000" fill-opacity="1"><g transform="translate(0.0000045, 217.750671)"><g><path d="M 84.875 -54.46875 C 84.988281 -54.351562 85.046875 -54.128906 85.046875 -53.796875 C 84.929688 -53.679688 84.414062 -53.28125 83.5 -52.59375 C 82.132812 -51.914062 80.226562 -50.945312 77.78125 -49.6875 C 75.332031 -48.4375 73.769531 -47.640625 73.09375 -47.296875 C 66.144531 -43.429688 61.53125 -40.757812 59.25 -39.28125 C 57.539062 -38.019531 56.347656 -36.648438 55.671875 -35.171875 C 52.367188 -28.003906 48.097656 -22.203125 42.859375 -17.765625 C 41.722656 -16.847656 40.585938 -16.050781 39.453125 -15.375 C 39.109375 -15.03125 38.421875 -14.742188 37.390625 -14.515625 C 36.597656 -14.398438 35.890625 -14.597656 35.265625 -15.109375 C 34.640625 -15.617188 34.441406 -16.273438 34.671875 -17.078125 C 34.890625 -18.210938 35.226562 -19.066406 35.6875 -19.640625 C 36.03125 -20.316406 36.65625 -21.226562 37.5625 -22.375 C 43.03125 -28.863281 48.097656 -33.816406 52.765625 -37.234375 C 54.242188 -38.253906 55.328125 -39.675781 56.015625 -41.5 C 58.628906 -48.101562 60.960938 -56.410156 63.015625 -66.421875 C 64.492188 -74.390625 65.175781 -81.734375 65.0625 -88.453125 C 64.832031 -92.671875 64.148438 -96.710938 63.015625 -100.578125 C 62.441406 -102.628906 61.703125 -104.222656 60.796875 -105.359375 C 58.972656 -107.753906 56.640625 -108.492188 53.796875 -107.578125 C 52.085938 -106.898438 50.265625 -105.765625 48.328125 -104.171875 C 45.023438 -101.429688 42.125 -97.84375 39.625 -93.40625 C 36.769531 -88.738281 33.863281 -82.191406 30.90625 -73.765625 C 26.125 -60.109375 22.023438 -46.28125 18.609375 -32.28125 C 14.972656 -17.59375 11.332031 -1.484375 7.6875 16.046875 C 7.457031 17.410156 6.832031 20.085938 5.8125 24.078125 C 5.8125 24.191406 5.523438 24.929688 4.953125 26.296875 C 4.609375 26.867188 4.15625 27.15625 3.59375 27.15625 C 3.019531 27.039062 2.5625 26.695312 2.21875 26.125 C 1.875 25.332031 1.703125 24.476562 1.703125 23.5625 C 1.703125 20.03125 1.757812 17.410156 1.875 15.703125 C 2.445312 6.367188 3.925781 -4.671875 6.3125 -17.421875 L 12.46875 -49.6875 C 13.832031 -56.976562 15.992188 -67.910156 18.953125 -82.484375 C 20.316406 -89.304688 21.226562 -94.710938 21.6875 -98.703125 C 21.6875 -99.609375 21.914062 -100.175781 22.375 -100.40625 C 22.601562 -100.519531 22.882812 -100.378906 23.21875 -99.984375 C 23.5625 -99.585938 23.789062 -99.160156 23.90625 -98.703125 C 24.132812 -97.335938 24.132812 -95.289062 23.90625 -92.5625 C 23.21875 -85.382812 21.171875 -72.914062 17.765625 -55.15625 L 11.09375 -19.984375 C 10.757812 -18.046875 10.164062 -14.710938 9.3125 -9.984375 C 8.457031 -5.265625 7.800781 -1.648438 7.34375 0.859375 L 5.8125 12.640625 L 5.8125 14.171875 C 6.375 13.378906 6.769531 12.242188 7 10.765625 C 10.757812 -6.429688 14.859375 -23.679688 19.296875 -40.984375 C 23.054688 -55.328125 27.382812 -68.988281 32.28125 -81.96875 C 34.550781 -88 37.335938 -93.460938 40.640625 -98.359375 C 43.035156 -101.890625 45.882812 -104.847656 49.1875 -107.234375 C 50.78125 -108.265625 52.484375 -109.117188 54.296875 -109.796875 C 57.035156 -110.597656 59.484375 -109.859375 61.640625 -107.578125 C 62.671875 -106.441406 63.582031 -104.847656 64.375 -102.796875 C 65.851562 -98.929688 66.765625 -94.609375 67.109375 -89.828125 C 67.566406 -81.628906 66.769531 -72.691406 64.71875 -63.015625 C 63.238281 -55.953125 61.472656 -49.519531 59.421875 -43.71875 C 59.421875 -43.601562 59.363281 -43.34375 59.25 -42.9375 C 59.132812 -42.539062 59.023438 -42.175781 58.921875 -41.84375 C 59.828125 -42.289062 61.671875 -43.28125 64.453125 -44.8125 C 67.242188 -46.351562 69.382812 -47.46875 70.875 -48.15625 L 82.65625 -54.125 C 83.5625 -54.582031 84.242188 -54.753906 84.703125 -54.640625 Z M 51.234375 -32.109375 L 51.234375 -32.78125 C 51.003906 -32.78125 50.832031 -32.722656 50.71875 -32.609375 C 46.726562 -29.304688 42.570312 -25.039062 38.25 -19.8125 C 38.019531 -19.582031 37.679688 -18.84375 37.234375 -17.59375 C 37.003906 -17.59375 37.054688 -17.421875 37.390625 -17.078125 L 37.734375 -17.078125 C 38.078125 -17.191406 38.59375 -17.476562 39.28125 -17.9375 C 44.0625 -21.570312 48.046875 -26.296875 51.234375 -32.109375 Z M 51.234375 -32.109375 "/></g></g></g><g fill="#000000" fill-opacity="1"><g transform="translate(81.624369, 217.750671)"><g><path d="M 10.25 -33.984375 C 7.851562 -34.210938 6.316406 -35.40625 5.640625 -37.5625 C 5.410156 -38.363281 5.296875 -39.734375 5.296875 -41.671875 C 5.410156 -42.691406 5.578125 -43.851562 5.796875 -45.15625 C 6.023438 -46.46875 6.164062 -47.351562 6.21875 -47.8125 C 6.28125 -48.269531 6.28125 -48.78125 6.21875 -49.34375 C 6.164062 -49.914062 6.023438 -50.34375 5.796875 -50.625 C 5.578125 -50.914062 5.238281 -51.234375 4.78125 -51.578125 C 3.644531 -52.253906 2.617188 -53.101562 1.703125 -54.125 C -0.453125 -56.863281 -0.164062 -59.257812 2.5625 -61.3125 C 3.46875 -61.875 4.347656 -61.957031 5.203125 -61.5625 C 6.054688 -61.164062 6.539062 -60.453125 6.65625 -59.421875 C 6.769531 -58.972656 6.710938 -58.175781 6.484375 -57.03125 C 6.484375 -56.914062 6.203125 -56.175781 5.640625 -54.8125 C 5.296875 -54.351562 5.351562 -53.898438 5.8125 -53.453125 C 6.144531 -53.109375 6.425781 -52.878906 6.65625 -52.765625 C 8.59375 -51.285156 9.503906 -49.125 9.390625 -46.28125 C 9.390625 -45.707031 9.359375 -44.851562 9.296875 -43.71875 C 9.242188 -42.582031 9.21875 -41.726562 9.21875 -41.15625 C 9.21875 -40.46875 9.332031 -39.554688 9.5625 -38.421875 C 9.90625 -37.171875 10.757812 -36.546875 12.125 -36.546875 C 13.03125 -36.660156 14.113281 -37 15.375 -37.5625 C 17.53125 -38.476562 19.691406 -39.847656 21.859375 -41.671875 C 22.878906 -42.460938 25.097656 -44.253906 28.515625 -47.046875 C 31.929688 -49.835938 34.148438 -51.628906 35.171875 -52.421875 C 36.085938 -53.109375 36.828125 -53.625 37.390625 -53.96875 C 37.503906 -54.070312 37.617188 -54.097656 37.734375 -54.046875 C 37.847656 -53.992188 37.90625 -53.910156 37.90625 -53.796875 C 38.132812 -53.566406 38.191406 -53.394531 38.078125 -53.28125 C 37.734375 -52.707031 37.503906 -52.363281 37.390625 -52.25 C 35.910156 -51 33.148438 -48.75 29.109375 -45.5 C 25.066406 -42.257812 22.648438 -40.351562 21.859375 -39.78125 C 19.921875 -38.082031 17.414062 -36.488281 14.34375 -35 C 13.207031 -34.320312 11.84375 -33.984375 10.25 -33.984375 Z M 3.421875 -55.671875 L 3.75 -55.84375 L 4.09375 -56.015625 C 4.664062 -56.921875 4.953125 -57.832031 4.953125 -58.75 C 4.953125 -58.96875 4.78125 -59.25 4.4375 -59.59375 C 4.207031 -59.820312 3.867188 -59.820312 3.421875 -59.59375 C 2.160156 -58.6875 1.988281 -57.550781 2.90625 -56.1875 Z M 3.421875 -55.671875 "/></g></g></g><g fill="#000000" fill-opacity="1"><g transform="translate(116.289075, 217.750671)"><g><path d="M 20.328125 -46.953125 C 17.816406 -46.273438 16.390625 -47.242188 16.046875 -49.859375 C 15.929688 -51.222656 16.046875 -52.757812 16.390625 -54.46875 C 16.617188 -55.726562 16.675781 -56.523438 16.5625 -56.859375 C 16.332031 -56.859375 16.101562 -56.800781 15.875 -56.6875 C 15.65625 -56.570312 15.488281 -56.457031 15.375 -56.34375 C 15.257812 -56.238281 15.113281 -56.097656 14.9375 -55.921875 C 14.769531 -55.753906 14.628906 -55.613281 14.515625 -55.5 C 11.898438 -53.21875 9.507812 -51.566406 7.34375 -50.546875 C 6.539062 -50.085938 5.742188 -49.6875 4.953125 -49.34375 C 3.816406 -49.007812 2.929688 -49.125 2.296875 -49.6875 C 1.671875 -50.257812 1.472656 -51.113281 1.703125 -52.25 C 1.703125 -52.476562 1.816406 -52.9375 2.046875 -53.625 C 2.734375 -55.21875 3.757812 -56.523438 5.125 -57.546875 C 7.507812 -59.253906 9.898438 -59.253906 12.296875 -57.546875 L 12.46875 -57.375 L 12.640625 -57.375 C 13.429688 -56.800781 14.113281 -56.800781 14.6875 -57.375 L 17.9375 -60.625 C 18.5 -61.082031 18.953125 -61.140625 19.296875 -60.796875 C 19.640625 -60.453125 19.695312 -60.164062 19.46875 -59.9375 C 19.351562 -59.03125 19.066406 -57.664062 18.609375 -55.84375 C 18.046875 -53.675781 17.820312 -51.679688 17.9375 -49.859375 C 18.039062 -48.953125 18.609375 -48.554688 19.640625 -48.671875 C 21.347656 -48.898438 25.898438 -50.773438 33.296875 -54.296875 C 33.753906 -54.296875 34.039062 -54.1875 34.15625 -53.96875 C 34.382812 -53.394531 34.097656 -52.878906 33.296875 -52.421875 C 27.378906 -49.460938 23.054688 -47.640625 20.328125 -46.953125 Z M 5.8125 -51.578125 C 7.0625 -52.023438 8.367188 -52.648438 9.734375 -53.453125 C 10.523438 -54.015625 10.976562 -54.46875 11.09375 -54.8125 C 11.207031 -55.039062 11.066406 -55.238281 10.671875 -55.40625 C 10.273438 -55.582031 9.789062 -55.671875 9.21875 -55.671875 C 8.3125 -55.441406 7.628906 -55.210938 7.171875 -54.984375 C 5.804688 -53.960938 4.894531 -52.878906 4.4375 -51.734375 C 5.007812 -51.285156 5.46875 -51.234375 5.8125 -51.578125 Z M 5.8125 -51.578125 "/></g></g></g><g fill="#000000" fill-opacity="1"><g transform="translate(147.026294, 217.750671)"><g><path d="M 12.8125 -23.21875 C 10.757812 -23.445312 10.019531 -24.585938 10.59375 -26.640625 C 10.8125 -27.546875 11.148438 -28.226562 11.609375 -28.6875 C 12.742188 -30.28125 13.710938 -31.421875 14.515625 -32.109375 C 17.929688 -35.628906 21.742188 -38.816406 25.953125 -41.671875 L 29.375 -44.0625 C 26.300781 -45.082031 23 -45.59375 19.46875 -45.59375 L 6.828125 -44.5625 C 5.460938 -44.5625 4.4375 -44.675781 3.75 -44.90625 C 1.476562 -45.59375 0.515625 -46.90625 0.859375 -48.84375 C 1.191406 -52.476562 2.953125 -55.378906 6.140625 -57.546875 C 6.710938 -58.003906 7.507812 -58.117188 8.53125 -57.890625 C 9.101562 -57.660156 9.53125 -57.234375 9.8125 -56.609375 C 10.101562 -55.984375 10.019531 -55.382812 9.5625 -54.8125 C 9.445312 -54.695312 9.332031 -54.550781 9.21875 -54.375 C 9.101562 -54.207031 8.957031 -54.066406 8.78125 -53.953125 C 8.613281 -53.847656 8.476562 -53.738281 8.375 -53.625 C 7.800781 -52.9375 7.054688 -51.796875 6.140625 -50.203125 C 5.460938 -48.609375 5.921875 -47.753906 7.515625 -47.640625 C 8.535156 -47.410156 10.070312 -47.179688 12.125 -46.953125 C 13.03125 -46.953125 14.304688 -46.976562 15.953125 -47.03125 C 17.609375 -47.09375 18.835938 -47.125 19.640625 -47.125 C 23.847656 -47.125 27.320312 -46.554688 30.0625 -45.421875 C 30.625 -45.191406 31.363281 -45.304688 32.28125 -45.765625 L 45.9375 -53.796875 C 46.164062 -53.910156 46.789062 -54.132812 47.8125 -54.46875 C 48.269531 -54.46875 48.554688 -54.300781 48.671875 -53.96875 C 49.015625 -53.625 48.957031 -53.335938 48.5 -53.109375 L 39.625 -47.8125 L 33.46875 -44.234375 C 32.789062 -43.773438 32.617188 -43.203125 32.953125 -42.515625 C 33.753906 -40.359375 33.585938 -38.140625 32.453125 -35.859375 C 28.921875 -29.253906 23.507812 -25.039062 16.21875 -23.21875 C 15.195312 -22.988281 14.0625 -22.988281 12.8125 -23.21875 Z M 13.3125 -25.109375 C 15.132812 -25.109375 16.5625 -25.332031 17.59375 -25.78125 C 22.144531 -27.257812 25.957031 -29.992188 29.03125 -33.984375 C 29.9375 -34.890625 30.675781 -36.140625 31.25 -37.734375 L 31.765625 -39.453125 C 31.765625 -40.128906 31.707031 -40.640625 31.59375 -40.984375 C 31.59375 -42.234375 31.023438 -42.519531 29.890625 -41.84375 C 24.191406 -38.425781 19.007812 -34.269531 14.34375 -29.375 C 13.882812 -28.914062 13.597656 -28.515625 13.484375 -28.171875 C 13.265625 -27.941406 13.039062 -27.601562 12.8125 -27.15625 C 12.46875 -26.582031 12.378906 -26.097656 12.546875 -25.703125 C 12.722656 -25.304688 12.976562 -25.109375 13.3125 -25.109375 Z M 13.3125 -25.109375 "/></g></g></g><g fill="#000000" fill-opacity="1"><g transform="translate(192.449125, 217.750671)"><g><path d="M 6.65625 -40.8125 C 5.175781 -39.332031 3.925781 -39.5625 2.90625 -41.5 C 2.332031 -42.863281 1.929688 -44.515625 1.703125 -46.453125 C 1.472656 -51.566406 1.816406 -56.003906 2.734375 -59.765625 C 4.671875 -69.328125 7.914062 -79.742188 12.46875 -91.015625 C 14.738281 -96.253906 17.523438 -101.035156 20.828125 -105.359375 C 21.972656 -107.066406 23.226562 -108.378906 24.59375 -109.296875 C 25.5 -109.972656 26.410156 -110.484375 27.328125 -110.828125 C 28.921875 -111.398438 30.226562 -111 31.25 -109.625 C 32.15625 -108.375 32.609375 -106.894531 32.609375 -105.1875 C 32.722656 -102.800781 32.382812 -99.957031 31.59375 -96.65625 C 30.457031 -91.644531 28.519531 -86.578125 25.78125 -81.453125 C 21.457031 -72.804688 16.789062 -65.519531 11.78125 -59.59375 C 9.050781 -56.632812 7.226562 -54.757812 6.3125 -53.96875 C 5.519531 -53.394531 5.125 -52.765625 5.125 -52.078125 C 4.550781 -48.441406 4.664062 -45.195312 5.46875 -42.34375 C 6.601562 -42.914062 7.738281 -44 8.875 -45.59375 L 14.859375 -52.25 C 15.765625 -53.394531 17.015625 -54.535156 18.609375 -55.671875 C 19.410156 -56.460938 20.265625 -56.914062 21.171875 -57.03125 C 23.222656 -57.601562 24.757812 -57.148438 25.78125 -55.671875 C 26.925781 -54.421875 27.894531 -53.109375 28.6875 -51.734375 C 30.394531 -48.660156 32.8125 -46.8125 35.9375 -46.1875 C 39.070312 -45.5625 42.175781 -46.445312 45.25 -48.84375 L 49.859375 -52.9375 C 50.203125 -53.28125 50.71875 -53.675781 51.40625 -54.125 C 51.40625 -54.351562 51.570312 -54.300781 51.90625 -53.96875 C 52.019531 -53.96875 52.078125 -53.851562 52.078125 -53.625 L 51.90625 -53.453125 C 49.0625 -49.921875 46.046875 -47.359375 42.859375 -45.765625 C 40.472656 -44.285156 37.6875 -43.914062 34.5 -44.65625 C 31.3125 -45.394531 28.921875 -47.1875 27.328125 -50.03125 C 25.734375 -52.539062 24.820312 -53.960938 24.59375 -54.296875 C 23.445312 -56.003906 21.96875 -56.289062 20.15625 -55.15625 C 19.125 -54.582031 18.039062 -53.726562 16.90625 -52.59375 C 14.96875 -50.769531 12.75 -48.207031 10.25 -44.90625 C 10.019531 -44.570312 9.675781 -44.117188 9.21875 -43.546875 C 8.757812 -42.972656 8.332031 -42.457031 7.9375 -42 C 7.539062 -41.550781 7.113281 -41.15625 6.65625 -40.8125 Z M 5.8125 -56.015625 L 6.3125 -56.015625 C 6.425781 -56.128906 6.65625 -56.328125 7 -56.609375 C 7.34375 -56.890625 7.628906 -57.171875 7.859375 -57.453125 C 8.085938 -57.742188 8.3125 -58.003906 8.53125 -58.234375 C 15.476562 -65.859375 21.515625 -75.132812 26.640625 -86.0625 C 28.117188 -89.363281 29.257812 -92.550781 30.0625 -95.625 C 30.96875 -98.695312 31.421875 -101.601562 31.421875 -104.34375 C 31.421875 -105.363281 31.25 -106.382812 30.90625 -107.40625 C 30.113281 -109.226562 28.804688 -109.628906 26.984375 -108.609375 C 25.503906 -107.472656 24.363281 -106.21875 23.5625 -104.84375 C 22.769531 -103.59375 21.691406 -101.71875 20.328125 -99.21875 C 17.140625 -93.519531 14.175781 -86.40625 11.4375 -77.875 C 9.050781 -71.039062 7.285156 -64.945312 6.140625 -59.59375 C 5.921875 -57.65625 5.8125 -56.460938 5.8125 -56.015625 Z M 5.8125 -56.015625 "/></g></g></g><g fill="#000000" fill-opacity="1"><g transform="translate(241.116443, 217.750671)"><g><path d="M 20.328125 -46.953125 C 17.816406 -46.273438 16.390625 -47.242188 16.046875 -49.859375 C 15.929688 -51.222656 16.046875 -52.757812 16.390625 -54.46875 C 16.617188 -55.726562 16.675781 -56.523438 16.5625 -56.859375 C 16.332031 -56.859375 16.101562 -56.800781 15.875 -56.6875 C 15.65625 -56.570312 15.488281 -56.457031 15.375 -56.34375 C 15.257812 -56.238281 15.113281 -56.097656 14.9375 -55.921875 C 14.769531 -55.753906 14.628906 -55.613281 14.515625 -55.5 C 11.898438 -53.21875 9.507812 -51.566406 7.34375 -50.546875 C 6.539062 -50.085938 5.742188 -49.6875 4.953125 -49.34375 C 3.816406 -49.007812 2.929688 -49.125 2.296875 -49.6875 C 1.671875 -50.257812 1.472656 -51.113281 1.703125 -52.25 C 1.703125 -52.476562 1.816406 -52.9375 2.046875 -53.625 C 2.734375 -55.21875 3.757812 -56.523438 5.125 -57.546875 C 7.507812 -59.253906 9.898438 -59.253906 12.296875 -57.546875 L 12.46875 -57.375 L 12.640625 -57.375 C 13.429688 -56.800781 14.113281 -56.800781 14.6875 -57.375 L 17.9375 -60.625 C 18.5 -61.082031 18.953125 -61.140625 19.296875 -60.796875 C 19.640625 -60.453125 19.695312 -60.164062 19.46875 -59.9375 C 19.351562 -59.03125 19.066406 -57.664062 18.609375 -55.84375 C 18.046875 -53.675781 17.820312 -51.679688 17.9375 -49.859375 C 18.039062 -48.953125 18.609375 -48.554688 19.640625 -48.671875 C 21.347656 -48.898438 25.898438 -50.773438 33.296875 -54.296875 C 33.753906 -54.296875 34.039062 -54.1875 34.15625 -53.96875 C 34.382812 -53.394531 34.097656 -52.878906 33.296875 -52.421875 C 27.378906 -49.460938 23.054688 -47.640625 20.328125 -46.953125 Z M 5.8125 -51.578125 C 7.0625 -52.023438 8.367188 -52.648438 9.734375 -53.453125 C 10.523438 -54.015625 10.976562 -54.46875 11.09375 -54.8125 C 11.207031 -55.039062 11.066406 -55.238281 10.671875 -55.40625 C 10.273438 -55.582031 9.789062 -55.671875 9.21875 -55.671875 C 8.3125 -55.441406 7.628906 -55.210938 7.171875 -54.984375 C 5.804688 -53.960938 4.894531 -52.878906 4.4375 -51.734375 C 5.007812 -51.285156 5.46875 -51.234375 5.8125 -51.578125 Z M 5.8125 -51.578125 "/></g></g></g><g fill="#000000" fill-opacity="1"><g transform="translate(271.853662, 217.750671)"><g><path d="M 20.328125 -46.953125 C 17.816406 -46.273438 16.390625 -47.242188 16.046875 -49.859375 C 15.929688 -51.222656 16.046875 -52.757812 16.390625 -54.46875 C 16.617188 -55.726562 16.675781 -56.523438 16.5625 -56.859375 C 16.332031 -56.859375 16.101562 -56.800781 15.875 -56.6875 C 15.65625 -56.570312 15.488281 -56.457031 15.375 -56.34375 C 15.257812 -56.238281 15.113281 -56.097656 14.9375 -55.921875 C 14.769531 -55.753906 14.628906 -55.613281 14.515625 -55.5 C 11.898438 -53.21875 9.507812 -51.566406 7.34375 -50.546875 C 6.539062 -50.085938 5.742188 -49.6875 4.953125 -49.34375 C 3.816406 -49.007812 2.929688 -49.125 2.296875 -49.6875 C 1.671875 -50.257812 1.472656 -51.113281 1.703125 -52.25 C 1.703125 -52.476562 1.816406 -52.9375 2.046875 -53.625 C 2.734375 -55.21875 3.757812 -56.523438 5.125 -57.546875 C 7.507812 -59.253906 9.898438 -59.253906 12.296875 -57.546875 L 12.46875 -57.375 L 12.640625 -57.375 C 13.429688 -56.800781 14.113281 -56.800781 14.6875 -57.375 L 17.9375 -60.625 C 18.5 -61.082031 18.953125 -61.140625 19.296875 -60.796875 C 19.640625 -60.453125 19.695312 -60.164062 19.46875 -59.9375 C 19.351562 -59.03125 19.066406 -57.664062 18.609375 -55.84375 C 18.046875 -53.675781 17.820312 -51.679688 17.9375 -49.859375 C 18.039062 -48.953125 18.609375 -48.554688 19.640625 -48.671875 C 21.347656 -48.898438 25.898438 -50.773438 33.296875 -54.296875 C 33.753906 -54.296875 34.039062 -54.1875 34.15625 -53.96875 C 34.382812 -53.394531 34.097656 -52.878906 33.296875 -52.421875 C 27.378906 -49.460938 23.054688 -47.640625 20.328125 -46.953125 Z M 5.8125 -51.578125 C 7.0625 -52.023438 8.367188 -52.648438 9.734375 -53.453125 C 10.523438 -54.015625 10.976562 -54.46875 11.09375 -54.8125 C 11.207031 -55.039062 11.066406 -55.238281 10.671875 -55.40625 C 10.273438 -55.582031 9.789062 -55.671875 9.21875 -55.671875 C 8.3125 -55.441406 7.628906 -55.210938 7.171875 -54.984375 C 5.804688 -53.960938 4.894531 -52.878906 4.4375 -51.734375 C 5.007812 -51.285156 5.46875 -51.234375 5.8125 -51.578125 Z M 5.8125 -51.578125 "/></g></g></g><g fill="#000000" fill-opacity="1"><g transform="translate(302.590881, 217.750671)"><g><path d="M 4.609375 -44.234375 C 3.359375 -43.203125 2.503906 -43.484375 2.046875 -45.078125 C 1.703125 -46.222656 1.644531 -47.816406 1.875 -49.859375 C 1.988281 -50.890625 2.273438 -52.144531 2.734375 -53.625 C 2.960938 -54.300781 3.300781 -54.640625 3.75 -54.640625 C 4.207031 -54.523438 4.4375 -54.070312 4.4375 -53.28125 C 4.207031 -52.363281 4.09375 -51.566406 4.09375 -50.890625 C 3.863281 -49.066406 3.863281 -47.703125 4.09375 -46.796875 C 5.570312 -48.273438 6.597656 -49.351562 7.171875 -50.03125 C 9.222656 -52.082031 11.101562 -53.5625 12.8125 -54.46875 C 15.3125 -56.0625 17.757812 -55.945312 20.15625 -54.125 C 21.175781 -53.332031 22.484375 -52.253906 24.078125 -50.890625 C 24.984375 -49.753906 26.71875 -49.382812 29.28125 -49.78125 C 31.84375 -50.175781 34.117188 -50.6875 36.109375 -51.3125 C 38.109375 -51.9375 40.019531 -52.648438 41.84375 -53.453125 C 42.175781 -53.679688 42.710938 -53.9375 43.453125 -54.21875 C 44.191406 -54.5 44.734375 -54.695312 45.078125 -54.8125 C 45.648438 -54.8125 46.050781 -54.640625 46.28125 -54.296875 C 46.394531 -54.078125 46.28125 -53.796875 45.9375 -53.453125 C 43.882812 -51.972656 41.40625 -50.632812 38.5 -49.4375 C 35.601562 -48.238281 32.585938 -47.410156 29.453125 -46.953125 C 26.328125 -46.503906 23.851562 -46.960938 22.03125 -48.328125 C 20.207031 -49.460938 18.894531 -50.375 18.09375 -51.0625 C 16.726562 -51.96875 15.25 -52.082031 13.65625 -51.40625 C 11.269531 -50.03125 9.109375 -48.378906 7.171875 -46.453125 Z M 4.609375 -44.234375 "/></g></g></g><g fill="#000000" fill-opacity="1"><g transform="translate(345.452223, 217.750671)"><g><path d="M 75.984375 -95.625 C 76.097656 -95.625 76.15625 -95.566406 76.15625 -95.453125 C 76.15625 -95.335938 76.097656 -95.28125 75.984375 -95.28125 L 75.3125 -94.609375 C 72.800781 -93.242188 70.523438 -92.273438 68.484375 -91.703125 C 63.921875 -90.679688 58.566406 -90.171875 52.421875 -90.171875 C 50.941406 -90.171875 45.050781 -90.222656 34.75 -90.328125 C 24.445312 -90.441406 18.046875 -90.5 15.546875 -90.5 L 12.46875 -90.5 C 10.644531 -83.445312 9.675781 -79.632812 9.5625 -79.0625 C 6.832031 -67.675781 5.125 -55.210938 4.4375 -41.671875 C 4.207031 -38.253906 4.4375 -35.066406 5.125 -32.109375 C 5.582031 -30.054688 6.035156 -28.628906 6.484375 -27.828125 C 7.515625 -25.328125 9.335938 -24.644531 11.953125 -25.78125 C 12.410156 -26.007812 13.09375 -26.46875 14 -27.15625 C 16.84375 -29.09375 19.40625 -31.597656 21.6875 -34.671875 C 24.414062 -38.304688 28.398438 -43.882812 33.640625 -51.40625 C 35.003906 -53.113281 35.914062 -54.019531 36.375 -54.125 C 36.488281 -53.675781 36.515625 -53.394531 36.453125 -53.28125 C 36.398438 -53.164062 36.117188 -52.738281 35.609375 -52 C 35.097656 -51.257812 34.785156 -50.832031 34.671875 -50.71875 C 30.453125 -44.6875 26.125 -38.820312 21.6875 -33.125 C 19.40625 -30.28125 17.128906 -27.945312 14.859375 -26.125 C 13.941406 -25.332031 12.972656 -24.707031 11.953125 -24.25 C 9.566406 -22.769531 7.347656 -23.28125 5.296875 -25.78125 C 4.609375 -26.582031 3.984375 -27.78125 3.421875 -29.375 C 2.273438 -32.789062 1.703125 -36.488281 1.703125 -40.46875 C 1.472656 -49.46875 2.046875 -58.175781 3.421875 -66.59375 C 4.441406 -73.769531 6.035156 -81.738281 8.203125 -90.5 C -0.796875 -90.5 -10.25 -89.988281 -20.15625 -88.96875 C -25.269531 -88.507812 -29.082031 -87.882812 -31.59375 -87.09375 C -34.320312 -86.0625 -35.972656 -84.976562 -36.546875 -83.84375 C -36.546875 -83.726562 -36.71875 -83.671875 -37.0625 -83.671875 C -37.394531 -84.015625 -37.5625 -84.300781 -37.5625 -84.53125 C -37.675781 -85.207031 -37.394531 -85.890625 -36.71875 -86.578125 C -35.914062 -87.265625 -34.832031 -87.832031 -33.46875 -88.28125 C -31.195312 -89.195312 -28.179688 -89.878906 -24.421875 -90.328125 C -13.828125 -91.585938 -3.75 -92.21875 5.8125 -92.21875 L 8.53125 -92.21875 C 8.53125 -92.550781 8.613281 -93.0625 8.78125 -93.75 C 8.957031 -94.4375 9.101562 -95.003906 9.21875 -95.453125 C 11.269531 -103.085938 14.457031 -111.851562 18.78125 -121.75 C 19.007812 -122.09375 19.296875 -122.660156 19.640625 -123.453125 C 19.984375 -124.253906 20.265625 -124.882812 20.484375 -125.34375 L 21.34375 -126.875 C 22.03125 -128.019531 22.769531 -128.421875 23.5625 -128.078125 C 24.363281 -127.734375 24.59375 -126.9375 24.25 -125.6875 C 24.132812 -124.882812 23.847656 -123.800781 23.390625 -122.4375 C 22.941406 -121.1875 22.289062 -119.421875 21.4375 -117.140625 C 20.582031 -114.867188 19.984375 -113.332031 19.640625 -112.53125 C 17.128906 -106.039062 15.132812 -100.234375 13.65625 -95.109375 L 12.8125 -92.046875 C 25.101562 -91.816406 34.09375 -91.703125 39.78125 -91.703125 C 41.269531 -91.703125 43.578125 -91.644531 46.703125 -91.53125 C 49.835938 -91.414062 52.203125 -91.359375 53.796875 -91.359375 C 57.097656 -91.359375 61.140625 -91.757812 65.921875 -92.5625 C 68.304688 -93.125 70.976562 -94.085938 73.9375 -95.453125 L 75.484375 -95.96875 C 75.597656 -95.96875 75.765625 -95.851562 75.984375 -95.625 Z M 75.984375 -95.625 "/></g></g></g></svg>